<svg width="25" height="25" viewBox="0 0 25 25" fill="none" xmlns="http://www.w3.org/2000/svg">
<path d="M12.9001 13.26C14.5546 13.26 15.8959 11.8899 15.8959 10.2C15.8959 8.50996 14.5546 7.13995 12.9001 7.13995C11.2455 7.13995 9.90425 8.50996 9.90425 10.2C9.90425 11.8899 11.2455 13.26 12.9001 13.26Z" stroke="white" stroke-width="2" stroke-linecap="round" stroke-linejoin="round"/>
<path d="M12.9001 2.03998C10.7813 2.03998 8.74929 2.89969 7.25109 4.42999C5.75288 5.96028 4.91119 8.03581 4.91119 10.2C4.91119 12.1298 5.31264 13.3926 6.40911 14.79L12.9001 22.44L19.3911 14.79C20.4875 13.3926 20.889 12.1298 20.889 10.2C20.889 8.03581 20.0473 5.96028 18.5491 4.42999C17.0509 2.89969 15.0189 2.03998 12.9001 2.03998V2.03998Z" stroke="white" stroke-width="2" stroke-linecap="round" stroke-linejoin="round"/>
</svg>
