<svg width="25" height="25" viewBox="0 0 25 25" fill="none" xmlns="http://www.w3.org/2000/svg">
<path d="M5.2821 7.14001H19.053C19.332 7.14003 19.6079 7.19976 19.863 7.31536C20.118 7.43096 20.3465 7.59987 20.5337 7.81119C20.721 8.02251 20.8628 8.27156 20.95 8.54229C21.0372 8.81301 21.068 9.0994 21.0402 9.383L20.441 15.503C20.3917 16.0064 20.1611 16.4731 19.7939 16.8126C19.4267 17.152 18.9491 17.34 18.4538 17.34H8.91705C8.45516 17.3402 8.00749 17.1769 7.65026 16.8778C7.29302 16.5788 7.0483 16.1625 6.95777 15.6999L5.2821 7.14001Z" stroke="white" stroke-width="2" stroke-linejoin="round"/>
<path d="M16.2668 21.42H18.2641M5.28212 7.14L4.47324 3.83214C4.41915 3.61157 4.29444 3.41578 4.11894 3.27589C3.94344 3.13599 3.72721 3.06 3.50459 3.06H2.28629L5.28212 7.14ZM8.27795 21.42H10.2752H8.27795Z" stroke="white" stroke-width="2" stroke-linecap="round" stroke-linejoin="round"/>
</svg>
