<svg width="26" height="26" viewBox="0 0 26 26" fill="none" xmlns="http://www.w3.org/2000/svg">
<path d="M0 9.75C0 8.88805 0.34241 8.0614 0.951903 7.4519C1.5614 6.84241 2.38805 6.5 3.25 6.5H22.75C23.612 6.5 24.4386 6.84241 25.0481 7.4519C25.6576 8.0614 26 8.88805 26 9.75V17.875C26 18.737 25.6576 19.5636 25.0481 20.1731C24.4386 20.7826 23.612 21.125 22.75 21.125H3.25C2.38805 21.125 1.5614 20.7826 0.951903 20.1731C0.34241 19.5636 0 18.737 0 17.875V9.75ZM21.125 10.1562V10.9688C21.125 11.193 21.307 11.375 21.5312 11.375H22.3438C22.4515 11.375 22.5548 11.3322 22.631 11.256C22.7072 11.1798 22.75 11.0765 22.75 10.9688V10.1562C22.75 10.0485 22.7072 9.94517 22.631 9.86899C22.5548 9.7928 22.4515 9.75 22.3438 9.75H21.5312C21.4235 9.75 21.3202 9.7928 21.244 9.86899C21.1678 9.94517 21.125 10.0485 21.125 10.1562ZM3.65625 13C3.54851 13 3.44517 13.0428 3.36899 13.119C3.2928 13.1952 3.25 13.2985 3.25 13.4062V14.2188C3.25 14.443 3.432 14.625 3.65625 14.625H4.46875C4.57649 14.625 4.67983 14.5822 4.75601 14.506C4.8322 14.4298 4.875 14.3265 4.875 14.2188V13.4062C4.875 13.2985 4.8322 13.1952 4.75601 13.119C4.67983 13.0428 4.57649 13 4.46875 13H3.65625ZM6.5 13.4062V14.2188C6.5 14.443 6.682 14.625 6.90625 14.625H7.71875C7.82649 14.625 7.92983 14.5822 8.00601 14.506C8.0822 14.4298 8.125 14.3265 8.125 14.2188V13.4062C8.125 13.2985 8.0822 13.1952 8.00601 13.119C7.92983 13.0428 7.82649 13 7.71875 13H6.90625C6.79851 13 6.69517 13.0428 6.61899 13.119C6.5428 13.1952 6.5 13.2985 6.5 13.4062ZM10.1562 13C10.0485 13 9.94517 13.0428 9.86899 13.119C9.7928 13.1952 9.75 13.2985 9.75 13.4062V14.2188C9.75 14.443 9.932 14.625 10.1562 14.625H10.9688C11.0765 14.625 11.1798 14.5822 11.256 14.506C11.3322 14.4298 11.375 14.3265 11.375 14.2188V13.4062C11.375 13.2985 11.3322 13.1952 11.256 13.119C11.1798 13.0428 11.0765 13 10.9688 13H10.1562ZM13 13.4062V14.2188C13 14.443 13.182 14.625 13.4062 14.625H14.2188C14.3265 14.625 14.4298 14.5822 14.506 14.506C14.5822 14.4298 14.625 14.3265 14.625 14.2188V13.4062C14.625 13.2985 14.5822 13.1952 14.506 13.119C14.4298 13.0428 14.3265 13 14.2188 13H13.4062C13.2985 13 13.1952 13.0428 13.119 13.119C13.0428 13.1952 13 13.2985 13 13.4062ZM21.5312 13C21.4235 13 21.3202 13.0428 21.244 13.119C21.1678 13.1952 21.125 13.2985 21.125 13.4062V14.2188C21.125 14.443 21.307 14.625 21.5312 14.625H22.3438C22.4515 14.625 22.5548 14.5822 22.631 14.506C22.7072 14.4298 22.75 14.3265 22.75 14.2188V13.4062C22.75 13.2985 22.7072 13.1952 22.631 13.119C22.5548 13.0428 22.4515 13 22.3438 13H21.5312ZM21.5312 16.25C21.4235 16.25 21.3202 16.2928 21.244 16.369C21.1678 16.4452 21.125 16.5485 21.125 16.6562V17.4688C21.125 17.693 21.307 17.875 21.5312 17.875H22.3438C22.4515 17.875 22.5548 17.8322 22.631 17.756C22.7072 17.6798 22.75 17.5765 22.75 17.4688V16.6562C22.75 16.5485 22.7072 16.4452 22.631 16.369C22.5548 16.2928 22.4515 16.25 22.3438 16.25H21.5312ZM16.6562 13C16.5485 13 16.4452 13.0428 16.369 13.119C16.2928 13.1952 16.25 13.2985 16.25 13.4062V14.2188C16.25 14.443 16.432 14.625 16.6562 14.625H19.0938C19.2015 14.625 19.3048 14.5822 19.381 14.506C19.4572 14.4298 19.5 14.3265 19.5 14.2188V13.4062C19.5 13.2985 19.4572 13.1952 19.381 13.119C19.3048 13.0428 19.2015 13 19.0938 13H16.6562ZM17.875 16.6562V17.4688C17.875 17.693 18.057 17.875 18.2812 17.875H19.0938C19.2015 17.875 19.3048 17.8322 19.381 17.756C19.4572 17.6798 19.5 17.5765 19.5 17.4688V16.6562C19.5 16.5485 19.4572 16.4452 19.381 16.369C19.3048 16.2928 19.2015 16.25 19.0938 16.25H18.2812C18.1735 16.25 18.0702 16.2928 17.994 16.369C17.9178 16.4452 17.875 16.5485 17.875 16.6562ZM18.2812 9.75C18.1735 9.75 18.0702 9.7928 17.994 9.86899C17.9178 9.94517 17.875 10.0485 17.875 10.1562V10.9688C17.875 11.193 18.057 11.375 18.2812 11.375H19.0938C19.2015 11.375 19.3048 11.3322 19.381 11.256C19.4572 11.1798 19.5 11.0765 19.5 10.9688V10.1562C19.5 10.0485 19.4572 9.94517 19.381 9.86899C19.3048 9.7928 19.2015 9.75 19.0938 9.75H18.2812ZM14.625 10.1562V10.9688C14.625 11.193 14.807 11.375 15.0312 11.375H15.8438C15.9515 11.375 16.0548 11.3322 16.131 11.256C16.2072 11.1798 16.25 11.0765 16.25 10.9688V10.1562C16.25 10.0485 16.2072 9.94517 16.131 9.86899C16.0548 9.7928 15.9515 9.75 15.8438 9.75H15.0312C14.9235 9.75 14.8202 9.7928 14.744 9.86899C14.6678 9.94517 14.625 10.0485 14.625 10.1562ZM11.7812 9.75C11.6735 9.75 11.5702 9.7928 11.494 9.86899C11.4178 9.94517 11.375 10.0485 11.375 10.1562V10.9688C11.375 11.193 11.557 11.375 11.7812 11.375H12.5938C12.7015 11.375 12.8048 11.3322 12.881 11.256C12.9572 11.1798 13 11.0765 13 10.9688V10.1562C13 10.0485 12.9572 9.94517 12.881 9.86899C12.8048 9.7928 12.7015 9.75 12.5938 9.75H11.7812ZM8.125 10.1562V10.9688C8.125 11.193 8.307 11.375 8.53125 11.375H9.34375C9.45149 11.375 9.55483 11.3322 9.63101 11.256C9.7072 11.1798 9.75 11.0765 9.75 10.9688V10.1562C9.75 10.0485 9.7072 9.94517 9.63101 9.86899C9.55483 9.7928 9.45149 9.75 9.34375 9.75H8.53125C8.42351 9.75 8.32017 9.7928 8.24399 9.86899C8.1678 9.94517 8.125 10.0485 8.125 10.1562ZM3.65625 9.75C3.54851 9.75 3.44517 9.7928 3.36899 9.86899C3.2928 9.94517 3.25 10.0485 3.25 10.1562V10.9688C3.25 11.193 3.432 11.375 3.65625 11.375H6.09375C6.20149 11.375 6.30483 11.3322 6.38101 11.256C6.4572 11.1798 6.5 11.0765 6.5 10.9688V10.1562C6.5 10.0485 6.4572 9.94517 6.38101 9.86899C6.30483 9.7928 6.20149 9.75 6.09375 9.75H3.65625ZM3.25 16.6562V17.4688C3.25 17.693 3.432 17.875 3.65625 17.875H4.46875C4.57649 17.875 4.67983 17.8322 4.75601 17.756C4.8322 17.6798 4.875 17.5765 4.875 17.4688V16.6562C4.875 16.5485 4.8322 16.4452 4.75601 16.369C4.67983 16.2928 4.57649 16.25 4.46875 16.25H3.65625C3.54851 16.25 3.44517 16.2928 3.36899 16.369C3.2928 16.4452 3.25 16.5485 3.25 16.6562ZM6.90625 16.25C6.79851 16.25 6.69517 16.2928 6.61899 16.369C6.5428 16.4452 6.5 16.5485 6.5 16.6562V17.4688C6.5 17.693 6.682 17.875 6.90625 17.875H15.8438C15.9515 17.875 16.0548 17.8322 16.131 17.756C16.2072 17.6798 16.25 17.5765 16.25 17.4688V16.6562C16.25 16.5485 16.2072 16.4452 16.131 16.369C16.0548 16.2928 15.9515 16.25 15.8438 16.25H6.90625Z" fill="#777777"/>
</svg>
