<svg width="25" height="25" viewBox="0 0 25 25" fill="none" xmlns="http://www.w3.org/2000/svg">
<path d="M0.580566 5.355C0.580566 4.74633 0.81729 4.16258 1.23866 3.73219C1.66003 3.30179 2.23153 3.06 2.82744 3.06H16.3087C16.9046 3.06 17.4761 3.30179 17.8975 3.73219C18.3188 4.16258 18.5556 4.74633 18.5556 5.355V7.65H20.0834C20.4201 7.6503 20.7524 7.72787 21.0557 7.87697C21.359 8.02606 21.6257 8.24288 21.836 8.51139L24.0544 11.3419C24.3736 11.7492 24.5474 12.2553 24.5472 12.777V16.065C24.5472 16.6737 24.3105 17.2574 23.8891 17.6878C23.4678 18.1182 22.8963 18.36 22.3004 18.36H21.5514C21.5514 19.1716 21.2358 19.9499 20.6739 20.5237C20.1121 21.0976 19.3501 21.42 18.5556 21.42C17.761 21.42 16.999 21.0976 16.4372 20.5237C15.8754 19.9499 15.5597 19.1716 15.5597 18.36H8.07015C8.07101 18.7679 7.99203 19.1718 7.83786 19.5481C7.68368 19.9243 7.45742 20.2653 7.17237 20.5509C6.88732 20.8366 6.54925 21.0611 6.17801 21.2114C5.80678 21.3616 5.40988 21.4346 5.01064 21.4259C4.61141 21.4172 4.21791 21.3271 3.85326 21.1609C3.48861 20.9946 3.16018 20.7556 2.88728 20.4579C2.61438 20.1601 2.40251 19.8096 2.26413 19.427C2.12575 19.0444 2.06365 18.6374 2.08148 18.2299C1.64266 18.0722 1.2626 17.7792 0.993758 17.3914C0.724914 17.0036 0.580541 16.5402 0.580566 16.065L0.580566 5.355ZM2.51887 16.7627C2.7897 16.3098 3.17123 15.9367 3.62598 15.68C4.08073 15.4233 4.59304 15.2919 5.11255 15.2987C5.63207 15.3055 6.14092 15.4502 6.58909 15.7187C7.03726 15.9872 7.40932 16.3702 7.66871 16.83H15.9612C16.2247 16.3653 16.6027 15.9792 17.0576 15.71V5.355C17.0576 5.15211 16.9787 4.95753 16.8383 4.81406C16.6978 4.6706 16.5073 4.59 16.3087 4.59H2.82744C2.62881 4.59 2.4383 4.6706 2.29785 4.81406C2.15739 4.95753 2.07848 5.15211 2.07848 5.355V16.065C2.07837 16.2122 2.11986 16.3564 2.19797 16.4802C2.27609 16.6039 2.38751 16.702 2.51887 16.7627ZM18.5556 15.3C19.0814 15.3 19.598 15.4414 20.0534 15.71C20.5089 15.9785 20.887 16.3648 21.15 16.83H22.3004C22.499 16.83 22.6895 16.7494 22.83 16.6059C22.9704 16.4625 23.0493 16.2679 23.0493 16.065V12.7755C23.049 12.6019 22.9909 12.4336 22.8845 12.2981L20.6676 9.46764C20.5976 9.37804 20.5087 9.30567 20.4076 9.25588C20.3065 9.2061 20.1957 9.18016 20.0834 9.18H18.5556V15.3ZM5.07432 16.83C4.67704 16.83 4.29604 16.9912 4.01513 17.2781C3.73422 17.5651 3.5764 17.9542 3.5764 18.36C3.5764 18.7658 3.73422 19.1549 4.01513 19.4419C4.29604 19.7288 4.67704 19.89 5.07432 19.89C5.47159 19.89 5.85259 19.7288 6.1335 19.4419C6.41442 19.1549 6.57223 18.7658 6.57223 18.36C6.57223 17.9542 6.41442 17.5651 6.1335 17.2781C5.85259 16.9912 5.47159 16.83 5.07432 16.83ZM18.5556 16.83C18.1583 16.83 17.7773 16.9912 17.4964 17.2781C17.2155 17.5651 17.0576 17.9542 17.0576 18.36C17.0576 18.7658 17.2155 19.1549 17.4964 19.4419C17.7773 19.7288 18.1583 19.89 18.5556 19.89C18.9528 19.89 19.3338 19.7288 19.6148 19.4419C19.8957 19.1549 20.0535 18.7658 20.0535 18.36C20.0535 17.9542 19.8957 17.5651 19.6148 17.2781C19.3338 16.9912 18.9528 16.83 18.5556 16.83Z" fill="white"/>
</svg>
