<svg width="20" height="20" viewBox="0 0 20 20" fill="none" xmlns="http://www.w3.org/2000/svg">
<path d="M6.25 11.25H5.625C4.24414 11.25 3.125 12.3711 3.125 13.7547V16.2453C3.125 17.6285 4.24414 18.75 5.625 18.75H6.25C6.94023 18.75 7.5 18.1891 7.5 17.4977V12.5023C7.5 11.8105 6.94023 11.25 6.25 11.25ZM14.375 11.25H13.75C13.0598 11.25 12.5 11.8105 12.5 12.5023V17.4977C12.5 18.1891 13.0598 18.75 13.75 18.75H14.375C15.7559 18.75 16.875 17.6285 16.875 16.2453V13.7547C16.875 12.3715 15.7559 11.25 14.375 11.25ZM10 1.25C4.41055 1.25 0.178516 5.90352 0 11.25V15.625C0 15.9703 0.279687 16.25 0.625 16.25H1.25C1.59531 16.25 1.875 15.9703 1.875 15.625V11.25C1.875 6.7707 5.5207 3.13281 10 3.13203C14.4793 3.13281 18.125 6.7707 18.125 11.25V15.625C18.125 15.9703 18.4047 16.25 18.75 16.25H19.375C19.7203 16.25 20 15.9703 20 15.625V11.25C19.8215 5.90352 15.5895 1.25 10 1.25Z" fill="#777777"/>
</svg>
