<svg width="13" height="24" viewBox="0 0 13 24" fill="none" xmlns="http://www.w3.org/2000/svg">
<path d="M6.3057 5.9609H6.91537C7.48539 5.9609 7.94885 5.48595 7.94885 4.90133V4.27649C7.94885 3.69263 7.48506 3.21692 6.91537 3.21692H6.3057C5.73568 3.21692 5.27222 3.69267 5.27222 4.27649V4.90133C5.27226 5.48595 5.73605 5.9609 6.3057 5.9609ZM5.56631 4.27649C5.56631 3.85898 5.898 3.51829 6.30574 3.51829H6.91541C7.32315 3.51829 7.65484 3.85903 7.65484 4.27649V4.90133C7.65484 5.31964 7.32315 5.65954 6.91541 5.65954H6.30574C5.89804 5.65954 5.56631 5.31959 5.56631 4.90133V4.27649Z" fill="#777777"/>
<path d="M4.36429 5.13763H4.56265C4.80299 5.13763 4.99823 4.93754 4.99823 4.69122V4.48713C4.99823 4.2416 4.80262 4.0415 4.56265 4.0415H4.36429C4.12395 4.0415 3.92871 4.2416 3.92871 4.48713V4.69122C3.92871 4.93754 4.12395 5.13763 4.36429 5.13763ZM4.22276 4.48713C4.22276 4.40796 4.28627 4.34287 4.36429 4.34287H4.56265C4.64067 4.34287 4.70418 4.40796 4.70418 4.48713V4.69122C4.70418 4.77118 4.64067 4.83627 4.56265 4.83627H4.36429C4.28627 4.83627 4.22276 4.77118 4.22276 4.69122V4.48713Z" fill="#777777"/>
<path d="M4.46385 5.71099C4.52512 5.71099 4.5748 5.66009 4.5748 5.59729C4.5748 5.53449 4.52512 5.48358 4.46385 5.48358C4.40258 5.48358 4.35291 5.53449 4.35291 5.59729C4.35291 5.66009 4.40258 5.71099 4.46385 5.71099Z" fill="#777777"/>
<path d="M10.3787 24C11.6039 24 13 22.5089 13 21.1998V2.80025C13 1.49112 11.6039 0 10.3787 0H2.84285C1.61765 0 0.221523 1.49112 0.221523 2.80025V4.08404C0.221523 4.30582 0.0893798 4.58992 0.039196 4.7796C0.014883 4.87158 0 4.98734 0 5.13239V5.40804C0 5.55348 0.014883 5.66882 0.039196 5.76084C0.0893798 5.9509 0.221523 6.23537 0.221523 6.4572V6.69587C0.221523 6.91765 0.0893798 7.20217 0.039196 7.39222C0.014883 7.48425 0 7.59997 0 7.74502V7.99134C0 8.13677 0.014883 8.25212 0.039196 8.34414C0.0893798 8.5342 0.221523 8.81867 0.221523 9.04045V21.1994C0.221523 22.5085 1.61765 23.9997 2.84285 23.9997H10.3787V24ZM0.589291 7.68956C0.59089 7.65863 0.684944 7.61199 0.749273 7.52602C0.78728 7.47538 0.809666 7.41193 0.809666 7.34361V5.8103C0.809666 5.7424 0.787321 5.67928 0.749683 5.62869C0.685395 5.5431 0.59089 5.49608 0.589332 5.46473C0.588553 5.44746 0.588184 5.42859 0.588184 5.40851V5.13286C0.588184 5.11277 0.588553 5.0947 0.589332 5.07743C0.590931 5.04688 0.685395 4.99986 0.749683 4.91347C0.787321 4.86284 0.809666 4.79934 0.809666 4.73064V2.80025C0.809666 1.79412 1.91174 0.602733 2.84289 0.602733H10.3787C11.3099 0.602733 12.4119 1.79412 12.4119 2.80025V21.1998C12.4119 22.2059 11.3099 23.3973 10.3787 23.3973H2.84285C1.9117 23.3973 0.809625 22.2059 0.809625 21.1998V8.39352C0.809625 8.32561 0.78728 8.26254 0.749642 8.21191C0.685354 8.12631 0.590849 8.07933 0.589291 8.04799C0.588512 8.03072 0.588143 8.01185 0.588143 7.99134V7.7454C0.588102 7.72532 0.588512 7.70683 0.589291 7.68956Z" fill="#777777"/>
<path d="M3.32328 20.8334C3.37049 20.8334 3.40876 20.7941 3.40876 20.7458C3.40876 20.6974 3.37049 20.6581 3.32328 20.6581C3.27607 20.6581 3.23779 20.6974 3.23779 20.7458C3.23779 20.7941 3.27607 20.8334 3.32328 20.8334Z" fill="#777777"/>
<path d="M3.32328 21.2021C3.37049 21.2021 3.40876 21.1629 3.40876 21.1145C3.40876 21.0661 3.37049 21.0269 3.32328 21.0269C3.27607 21.0269 3.23779 21.0661 3.23779 21.1145C3.23779 21.1629 3.27607 21.2021 3.32328 21.2021Z" fill="#777777"/>
<path d="M3.32328 21.5711C3.37049 21.5711 3.40876 21.5319 3.40876 21.4835C3.40876 21.4351 3.37049 21.3959 3.32328 21.3959C3.27607 21.3959 3.23779 21.4351 3.23779 21.4835C3.23779 21.5319 3.27607 21.5711 3.32328 21.5711Z" fill="#777777"/>
<path d="M3.0369 21.2021C3.08411 21.2021 3.12239 21.1629 3.12239 21.1145C3.12239 21.0661 3.08411 21.0269 3.0369 21.0269C2.98969 21.0269 2.95142 21.0661 2.95142 21.1145C2.95142 21.1629 2.98969 21.2021 3.0369 21.2021Z" fill="#777777"/>
<path d="M3.0369 21.5711C3.08411 21.5711 3.12239 21.5319 3.12239 21.4835C3.12239 21.4351 3.08411 21.3959 3.0369 21.3959C2.98969 21.3959 2.95142 21.4351 2.95142 21.4835C2.95142 21.5319 2.98969 21.5711 3.0369 21.5711Z" fill="#777777"/>
<path d="M3.32324 21.9407C3.37043 21.9407 3.40868 21.9015 3.40868 21.8531C3.40868 21.8048 3.37043 21.7656 3.32324 21.7656C3.27605 21.7656 3.23779 21.8048 3.23779 21.8531C3.23779 21.9015 3.27605 21.9407 3.32324 21.9407Z" fill="#777777"/>
<path d="M3.64896 20.8334C3.69617 20.8334 3.73445 20.7941 3.73445 20.7458C3.73445 20.6974 3.69617 20.6581 3.64896 20.6581C3.60175 20.6581 3.56348 20.6974 3.56348 20.7458C3.56348 20.7941 3.60175 20.8334 3.64896 20.8334Z" fill="#777777"/>
<path d="M3.64896 21.2021C3.69617 21.2021 3.73445 21.1629 3.73445 21.1145C3.73445 21.0661 3.69617 21.0269 3.64896 21.0269C3.60175 21.0269 3.56348 21.0661 3.56348 21.1145C3.56348 21.1629 3.60175 21.2021 3.64896 21.2021Z" fill="#777777"/>
<path d="M3.64896 21.5711C3.69617 21.5711 3.73445 21.5319 3.73445 21.4835C3.73445 21.4351 3.69617 21.3959 3.64896 21.3959C3.60175 21.3959 3.56348 21.4351 3.56348 21.4835C3.56348 21.5319 3.60175 21.5711 3.64896 21.5711Z" fill="#777777"/>
<path d="M3.64916 21.9407C3.69635 21.9407 3.73461 21.9015 3.73461 21.8531C3.73461 21.8048 3.69635 21.7656 3.64916 21.7656C3.60198 21.7656 3.56372 21.8048 3.56372 21.8531C3.56372 21.9015 3.60198 21.9407 3.64916 21.9407Z" fill="#777777"/>
<path d="M3.97452 20.8334C4.02173 20.8334 4.06001 20.7941 4.06001 20.7458C4.06001 20.6974 4.02173 20.6581 3.97452 20.6581C3.92731 20.6581 3.88904 20.6974 3.88904 20.7458C3.88904 20.7941 3.92731 20.8334 3.97452 20.8334Z" fill="#777777"/>
<path d="M3.97452 21.2021C4.02173 21.2021 4.06001 21.1629 4.06001 21.1145C4.06001 21.0661 4.02173 21.0269 3.97452 21.0269C3.92731 21.0269 3.88904 21.0661 3.88904 21.1145C3.88904 21.1629 3.92731 21.2021 3.97452 21.2021Z" fill="#777777"/>
<path d="M3.97452 21.5711C4.02173 21.5711 4.06001 21.5319 4.06001 21.4835C4.06001 21.4351 4.02173 21.3959 3.97452 21.3959C3.92731 21.3959 3.88904 21.4351 3.88904 21.4835C3.88904 21.5319 3.92731 21.5711 3.97452 21.5711Z" fill="#777777"/>
<path d="M3.97448 21.9407C4.02167 21.9407 4.05993 21.9015 4.05993 21.8531C4.05993 21.8048 4.02167 21.7656 3.97448 21.7656C3.92729 21.7656 3.88904 21.8048 3.88904 21.8531C3.88904 21.9015 3.92729 21.9407 3.97448 21.9407Z" fill="#777777"/>
<path d="M4.29984 20.8334C4.34705 20.8334 4.38532 20.7941 4.38532 20.7458C4.38532 20.6974 4.34705 20.6581 4.29984 20.6581C4.25263 20.6581 4.21436 20.6974 4.21436 20.7458C4.21436 20.7941 4.25263 20.8334 4.29984 20.8334Z" fill="#777777"/>
<path d="M4.29984 21.2021C4.34705 21.2021 4.38532 21.1629 4.38532 21.1145C4.38532 21.0661 4.34705 21.0269 4.29984 21.0269C4.25263 21.0269 4.21436 21.0661 4.21436 21.1145C4.21436 21.1629 4.25263 21.2021 4.29984 21.2021Z" fill="#777777"/>
<path d="M4.29984 21.5711C4.34705 21.5711 4.38532 21.5319 4.38532 21.4835C4.38532 21.4351 4.34705 21.3959 4.29984 21.3959C4.25263 21.3959 4.21436 21.4351 4.21436 21.4835C4.21436 21.5319 4.25263 21.5711 4.29984 21.5711Z" fill="#777777"/>
<path d="M4.2998 21.9407C4.34699 21.9407 4.38524 21.9015 4.38524 21.8531C4.38524 21.8048 4.34699 21.7656 4.2998 21.7656C4.25261 21.7656 4.21436 21.8048 4.21436 21.8531C4.21436 21.9015 4.25261 21.9407 4.2998 21.9407Z" fill="#777777"/>
<path d="M4.62516 20.8334C4.67237 20.8334 4.71064 20.7941 4.71064 20.7458C4.71064 20.6974 4.67237 20.6581 4.62516 20.6581C4.57795 20.6581 4.53967 20.6974 4.53967 20.7458C4.53967 20.7941 4.57795 20.8334 4.62516 20.8334Z" fill="#777777"/>
<path d="M4.62516 21.2021C4.67237 21.2021 4.71064 21.1629 4.71064 21.1145C4.71064 21.0661 4.67237 21.0269 4.62516 21.0269C4.57795 21.0269 4.53967 21.0661 4.53967 21.1145C4.53967 21.1629 4.57795 21.2021 4.62516 21.2021Z" fill="#777777"/>
<path d="M4.62516 21.5711C4.67237 21.5711 4.71064 21.5319 4.71064 21.4835C4.71064 21.4351 4.67237 21.3959 4.62516 21.3959C4.57795 21.3959 4.53967 21.4351 4.53967 21.4835C4.53967 21.5319 4.57795 21.5711 4.62516 21.5711Z" fill="#777777"/>
<path d="M4.62512 21.9407C4.67231 21.9407 4.71056 21.9015 4.71056 21.8531C4.71056 21.8048 4.67231 21.7656 4.62512 21.7656C4.57793 21.7656 4.53967 21.8048 4.53967 21.8531C4.53967 21.9015 4.57793 21.9407 4.62512 21.9407Z" fill="#777777"/>
<path d="M4.95092 20.8329C4.99811 20.8329 5.03637 20.7937 5.03637 20.7453C5.03637 20.697 4.99811 20.6578 4.95092 20.6578C4.90373 20.6578 4.86548 20.697 4.86548 20.7453C4.86548 20.7937 4.90373 20.8329 4.95092 20.8329Z" fill="#777777"/>
<path d="M4.95096 21.2021C4.99817 21.2021 5.03645 21.1629 5.03645 21.1145C5.03645 21.0661 4.99817 21.0269 4.95096 21.0269C4.90375 21.0269 4.86548 21.0661 4.86548 21.1145C4.86548 21.1629 4.90375 21.2021 4.95096 21.2021Z" fill="#777777"/>
<path d="M4.95096 21.5711C4.99817 21.5711 5.03645 21.5319 5.03645 21.4835C5.03645 21.4351 4.99817 21.3959 4.95096 21.3959C4.90375 21.3959 4.86548 21.4351 4.86548 21.4835C4.86548 21.5319 4.90375 21.5711 4.95096 21.5711Z" fill="#777777"/>
<path d="M4.95092 21.9407C4.99811 21.9407 5.03637 21.9015 5.03637 21.8531C5.03637 21.8048 4.99811 21.7656 4.95092 21.7656C4.90373 21.7656 4.86548 21.8048 4.86548 21.8531C4.86548 21.9015 4.90373 21.9407 4.95092 21.9407Z" fill="#777777"/>
<path d="M5.27628 20.8334C5.32349 20.8334 5.36177 20.7941 5.36177 20.7458C5.36177 20.6974 5.32349 20.6581 5.27628 20.6581C5.22907 20.6581 5.1908 20.6974 5.1908 20.7458C5.1908 20.7941 5.22907 20.8334 5.27628 20.8334Z" fill="#777777"/>
<path d="M5.27628 21.2021C5.32349 21.2021 5.36177 21.1629 5.36177 21.1145C5.36177 21.0661 5.32349 21.0269 5.27628 21.0269C5.22907 21.0269 5.1908 21.0661 5.1908 21.1145C5.1908 21.1629 5.22907 21.2021 5.27628 21.2021Z" fill="#777777"/>
<path d="M5.27628 21.5711C5.32349 21.5711 5.36177 21.5319 5.36177 21.4835C5.36177 21.4351 5.32349 21.3959 5.27628 21.3959C5.22907 21.3959 5.1908 21.4351 5.1908 21.4835C5.1908 21.5319 5.22907 21.5711 5.27628 21.5711Z" fill="#777777"/>
<path d="M5.27624 21.9407C5.32343 21.9407 5.36168 21.9015 5.36168 21.8531C5.36168 21.8048 5.32343 21.7656 5.27624 21.7656C5.22905 21.7656 5.1908 21.8048 5.1908 21.8531C5.1908 21.9015 5.22905 21.9407 5.27624 21.9407Z" fill="#777777"/>
<path d="M5.6016 20.8334C5.64881 20.8334 5.68708 20.7941 5.68708 20.7458C5.68708 20.6974 5.64881 20.6581 5.6016 20.6581C5.55439 20.6581 5.51611 20.6974 5.51611 20.7458C5.51611 20.7941 5.55439 20.8334 5.6016 20.8334Z" fill="#777777"/>
<path d="M5.6016 21.2021C5.64881 21.2021 5.68708 21.1629 5.68708 21.1145C5.68708 21.0661 5.64881 21.0269 5.6016 21.0269C5.55439 21.0269 5.51611 21.0661 5.51611 21.1145C5.51611 21.1629 5.55439 21.2021 5.6016 21.2021Z" fill="#777777"/>
<path d="M5.6016 21.5711C5.64881 21.5711 5.68708 21.5319 5.68708 21.4835C5.68708 21.4351 5.64881 21.3959 5.6016 21.3959C5.55439 21.3959 5.51611 21.4351 5.51611 21.4835C5.51611 21.5319 5.55439 21.5711 5.6016 21.5711Z" fill="#777777"/>
<path d="M5.6018 21.9407C5.64899 21.9407 5.68724 21.9015 5.68724 21.8531C5.68724 21.8048 5.64899 21.7656 5.6018 21.7656C5.55461 21.7656 5.51636 21.8048 5.51636 21.8531C5.51636 21.9015 5.55461 21.9407 5.6018 21.9407Z" fill="#777777"/>
<path d="M5.9274 20.8334C5.97462 20.8334 6.01289 20.7941 6.01289 20.7458C6.01289 20.6974 5.97462 20.6581 5.9274 20.6581C5.88019 20.6581 5.84192 20.6974 5.84192 20.7458C5.84192 20.7941 5.88019 20.8334 5.9274 20.8334Z" fill="#777777"/>
<path d="M5.9274 21.2021C5.97462 21.2021 6.01289 21.1629 6.01289 21.1145C6.01289 21.0661 5.97462 21.0269 5.9274 21.0269C5.88019 21.0269 5.84192 21.0661 5.84192 21.1145C5.84192 21.1629 5.88019 21.2021 5.9274 21.2021Z" fill="#777777"/>
<path d="M5.9274 21.5711C5.97462 21.5711 6.01289 21.5319 6.01289 21.4835C6.01289 21.4351 5.97462 21.3959 5.9274 21.3959C5.88019 21.3959 5.84192 21.4351 5.84192 21.4835C5.84192 21.5319 5.88019 21.5711 5.9274 21.5711Z" fill="#777777"/>
<path d="M5.92736 21.9407C5.97455 21.9407 6.01281 21.9015 6.01281 21.8531C6.01281 21.8048 5.97455 21.7656 5.92736 21.7656C5.88017 21.7656 5.84192 21.8048 5.84192 21.8531C5.84192 21.9015 5.88017 21.9407 5.92736 21.9407Z" fill="#777777"/>
<path d="M6.25296 20.8334C6.30018 20.8334 6.33845 20.7941 6.33845 20.7458C6.33845 20.6974 6.30018 20.6581 6.25296 20.6581C6.20575 20.6581 6.16748 20.6974 6.16748 20.7458C6.16748 20.7941 6.20575 20.8334 6.25296 20.8334Z" fill="#777777"/>
<path d="M6.25296 21.2021C6.30018 21.2021 6.33845 21.1629 6.33845 21.1145C6.33845 21.0661 6.30018 21.0269 6.25296 21.0269C6.20575 21.0269 6.16748 21.0661 6.16748 21.1145C6.16748 21.1629 6.20575 21.2021 6.25296 21.2021Z" fill="#777777"/>
<path d="M6.25296 21.5711C6.30018 21.5711 6.33845 21.5319 6.33845 21.4835C6.33845 21.4351 6.30018 21.3959 6.25296 21.3959C6.20575 21.3959 6.16748 21.4351 6.16748 21.4835C6.16748 21.5319 6.20575 21.5711 6.25296 21.5711Z" fill="#777777"/>
<path d="M6.25292 21.9407C6.30011 21.9407 6.33837 21.9015 6.33837 21.8531C6.33837 21.8048 6.30011 21.7656 6.25292 21.7656C6.20573 21.7656 6.16748 21.8048 6.16748 21.8531C6.16748 21.9015 6.20573 21.9407 6.25292 21.9407Z" fill="#777777"/>
<path d="M6.57865 20.8334C6.62586 20.8334 6.66413 20.7941 6.66413 20.7458C6.66413 20.6974 6.62586 20.6581 6.57865 20.6581C6.53144 20.6581 6.49316 20.6974 6.49316 20.7458C6.49316 20.7941 6.53144 20.8334 6.57865 20.8334Z" fill="#777777"/>
<path d="M6.57865 21.2021C6.62586 21.2021 6.66413 21.1629 6.66413 21.1145C6.66413 21.0661 6.62586 21.0269 6.57865 21.0269C6.53144 21.0269 6.49316 21.0661 6.49316 21.1145C6.49316 21.1629 6.53144 21.2021 6.57865 21.2021Z" fill="#777777"/>
<path d="M6.57865 21.5711C6.62586 21.5711 6.66413 21.5319 6.66413 21.4835C6.66413 21.4351 6.62586 21.3959 6.57865 21.3959C6.53144 21.3959 6.49316 21.4351 6.49316 21.4835C6.49316 21.5319 6.53144 21.5711 6.57865 21.5711Z" fill="#777777"/>
<path d="M6.57861 21.9407C6.6258 21.9407 6.66405 21.9015 6.66405 21.8531C6.66405 21.8048 6.6258 21.7656 6.57861 21.7656C6.53142 21.7656 6.49316 21.8048 6.49316 21.8531C6.49316 21.9015 6.53142 21.9407 6.57861 21.9407Z" fill="#777777"/>
<path d="M6.90421 20.8334C6.95142 20.8334 6.9897 20.7941 6.9897 20.7458C6.9897 20.6974 6.95142 20.6581 6.90421 20.6581C6.857 20.6581 6.81873 20.6974 6.81873 20.7458C6.81873 20.7941 6.857 20.8334 6.90421 20.8334Z" fill="#777777"/>
<path d="M6.90421 21.2021C6.95142 21.2021 6.9897 21.1629 6.9897 21.1145C6.9897 21.0661 6.95142 21.0269 6.90421 21.0269C6.857 21.0269 6.81873 21.0661 6.81873 21.1145C6.81873 21.1629 6.857 21.2021 6.90421 21.2021Z" fill="#777777"/>
<path d="M6.90421 21.5711C6.95142 21.5711 6.9897 21.5319 6.9897 21.4835C6.9897 21.4351 6.95142 21.3959 6.90421 21.3959C6.857 21.3959 6.81873 21.4351 6.81873 21.4835C6.81873 21.5319 6.857 21.5711 6.90421 21.5711Z" fill="#777777"/>
<path d="M6.90441 21.9407C6.9516 21.9407 6.98986 21.9015 6.98986 21.8531C6.98986 21.8048 6.9516 21.7656 6.90441 21.7656C6.85722 21.7656 6.81897 21.8048 6.81897 21.8531C6.81897 21.9015 6.85722 21.9407 6.90441 21.9407Z" fill="#777777"/>
<path d="M7.22977 20.8334C7.27698 20.8334 7.31526 20.7941 7.31526 20.7458C7.31526 20.6974 7.27698 20.6581 7.22977 20.6581C7.18256 20.6581 7.14429 20.6974 7.14429 20.7458C7.14429 20.7941 7.18256 20.8334 7.22977 20.8334Z" fill="#777777"/>
<path d="M7.22977 21.2021C7.27698 21.2021 7.31526 21.1629 7.31526 21.1145C7.31526 21.0661 7.27698 21.0269 7.22977 21.0269C7.18256 21.0269 7.14429 21.0661 7.14429 21.1145C7.14429 21.1629 7.18256 21.2021 7.22977 21.2021Z" fill="#777777"/>
<path d="M7.22977 21.5711C7.27698 21.5711 7.31526 21.5319 7.31526 21.4835C7.31526 21.4351 7.27698 21.3959 7.22977 21.3959C7.18256 21.3959 7.14429 21.4351 7.14429 21.4835C7.14429 21.5319 7.18256 21.5711 7.22977 21.5711Z" fill="#777777"/>
<path d="M7.22973 21.9407C7.27692 21.9407 7.31518 21.9015 7.31518 21.8531C7.31518 21.8048 7.27692 21.7656 7.22973 21.7656C7.18254 21.7656 7.14429 21.8048 7.14429 21.8531C7.14429 21.9015 7.18254 21.9407 7.22973 21.9407Z" fill="#777777"/>
<path d="M7.55509 20.8334C7.6023 20.8334 7.64057 20.7941 7.64057 20.7458C7.64057 20.6974 7.6023 20.6581 7.55509 20.6581C7.50788 20.6581 7.4696 20.6974 7.4696 20.7458C7.4696 20.7941 7.50788 20.8334 7.55509 20.8334Z" fill="#777777"/>
<path d="M7.55509 21.2021C7.6023 21.2021 7.64057 21.1629 7.64057 21.1145C7.64057 21.0661 7.6023 21.0269 7.55509 21.0269C7.50788 21.0269 7.4696 21.0661 7.4696 21.1145C7.4696 21.1629 7.50788 21.2021 7.55509 21.2021Z" fill="#777777"/>
<path d="M7.55509 21.5711C7.6023 21.5711 7.64057 21.5319 7.64057 21.4835C7.64057 21.4351 7.6023 21.3959 7.55509 21.3959C7.50788 21.3959 7.4696 21.4351 7.4696 21.4835C7.4696 21.5319 7.50788 21.5711 7.55509 21.5711Z" fill="#777777"/>
<path d="M7.55505 21.9407C7.60224 21.9407 7.64049 21.9015 7.64049 21.8531C7.64049 21.8048 7.60224 21.7656 7.55505 21.7656C7.50786 21.7656 7.4696 21.8048 7.4696 21.8531C7.4696 21.9015 7.50786 21.9407 7.55505 21.9407Z" fill="#777777"/>
<path d="M7.88089 20.8334C7.92811 20.8334 7.96638 20.7941 7.96638 20.7458C7.96638 20.6974 7.92811 20.6581 7.88089 20.6581C7.83368 20.6581 7.79541 20.6974 7.79541 20.7458C7.79541 20.7941 7.83368 20.8334 7.88089 20.8334Z" fill="#777777"/>
<path d="M7.88089 21.2021C7.92811 21.2021 7.96638 21.1629 7.96638 21.1145C7.96638 21.0661 7.92811 21.0269 7.88089 21.0269C7.83368 21.0269 7.79541 21.0661 7.79541 21.1145C7.79541 21.1629 7.83368 21.2021 7.88089 21.2021Z" fill="#777777"/>
<path d="M7.88089 21.5711C7.92811 21.5711 7.96638 21.5319 7.96638 21.4835C7.96638 21.4351 7.92811 21.3959 7.88089 21.3959C7.83368 21.3959 7.79541 21.4351 7.79541 21.4835C7.79541 21.5319 7.83368 21.5711 7.88089 21.5711Z" fill="#777777"/>
<path d="M7.88085 21.9407C7.92804 21.9407 7.9663 21.9015 7.9663 21.8531C7.9663 21.8048 7.92804 21.7656 7.88085 21.7656C7.83366 21.7656 7.79541 21.8048 7.79541 21.8531C7.79541 21.9015 7.83366 21.9407 7.88085 21.9407Z" fill="#777777"/>
<path d="M8.20621 20.8334C8.25343 20.8334 8.2917 20.7941 8.2917 20.7458C8.2917 20.6974 8.25343 20.6581 8.20621 20.6581C8.159 20.6581 8.12073 20.6974 8.12073 20.7458C8.12073 20.7941 8.159 20.8334 8.20621 20.8334Z" fill="#777777"/>
<path d="M8.20621 21.2021C8.25343 21.2021 8.2917 21.1629 8.2917 21.1145C8.2917 21.0661 8.25343 21.0269 8.20621 21.0269C8.159 21.0269 8.12073 21.0661 8.12073 21.1145C8.12073 21.1629 8.159 21.2021 8.20621 21.2021Z" fill="#777777"/>
<path d="M8.20621 21.5711C8.25343 21.5711 8.2917 21.5319 8.2917 21.4835C8.2917 21.4351 8.25343 21.3959 8.20621 21.3959C8.159 21.3959 8.12073 21.4351 8.12073 21.4835C8.12073 21.5319 8.159 21.5711 8.20621 21.5711Z" fill="#777777"/>
<path d="M8.20617 21.9407C8.25336 21.9407 8.29162 21.9015 8.29162 21.8531C8.29162 21.8048 8.25336 21.7656 8.20617 21.7656C8.15898 21.7656 8.12073 21.8048 8.12073 21.8531C8.12073 21.9015 8.15898 21.9407 8.20617 21.9407Z" fill="#777777"/>
<path d="M8.53153 20.8334C8.57874 20.8334 8.61702 20.7941 8.61702 20.7458C8.61702 20.6974 8.57874 20.6581 8.53153 20.6581C8.48432 20.6581 8.44604 20.6974 8.44604 20.7458C8.44604 20.7941 8.48432 20.8334 8.53153 20.8334Z" fill="#777777"/>
<path d="M8.53153 21.2021C8.57874 21.2021 8.61702 21.1629 8.61702 21.1145C8.61702 21.0661 8.57874 21.0269 8.53153 21.0269C8.48432 21.0269 8.44604 21.0661 8.44604 21.1145C8.44604 21.1629 8.48432 21.2021 8.53153 21.2021Z" fill="#777777"/>
<path d="M8.53153 21.5711C8.57874 21.5711 8.61702 21.5319 8.61702 21.4835C8.61702 21.4351 8.57874 21.3959 8.53153 21.3959C8.48432 21.3959 8.44604 21.4351 8.44604 21.4835C8.44604 21.5319 8.48432 21.5711 8.53153 21.5711Z" fill="#777777"/>
<path d="M8.85746 20.8334C8.90467 20.8334 8.94294 20.7941 8.94294 20.7458C8.94294 20.6974 8.90467 20.6581 8.85746 20.6581C8.81025 20.6581 8.77197 20.6974 8.77197 20.7458C8.77197 20.7941 8.81025 20.8334 8.85746 20.8334Z" fill="#777777"/>
<path d="M8.85746 21.2021C8.90467 21.2021 8.94294 21.1629 8.94294 21.1145C8.94294 21.0661 8.90467 21.0269 8.85746 21.0269C8.81025 21.0269 8.77197 21.0661 8.77197 21.1145C8.77197 21.1629 8.81025 21.2021 8.85746 21.2021Z" fill="#777777"/>
<path d="M8.85746 21.5711C8.90467 21.5711 8.94294 21.5319 8.94294 21.4835C8.94294 21.4351 8.90467 21.3959 8.85746 21.3959C8.81025 21.3959 8.77197 21.4351 8.77197 21.4835C8.77197 21.5319 8.81025 21.5711 8.85746 21.5711Z" fill="#777777"/>
<path d="M9.18278 20.8334C9.22999 20.8334 9.26826 20.7941 9.26826 20.7458C9.26826 20.6974 9.22999 20.6581 9.18278 20.6581C9.13556 20.6581 9.09729 20.6974 9.09729 20.7458C9.09729 20.7941 9.13556 20.8334 9.18278 20.8334Z" fill="#777777"/>
<path d="M9.18278 21.2021C9.22999 21.2021 9.26826 21.1629 9.26826 21.1145C9.26826 21.0661 9.22999 21.0269 9.18278 21.0269C9.13556 21.0269 9.09729 21.0661 9.09729 21.1145C9.09729 21.1629 9.13556 21.2021 9.18278 21.2021Z" fill="#777777"/>
<path d="M9.18278 21.5711C9.22999 21.5711 9.26826 21.5319 9.26826 21.4835C9.26826 21.4351 9.22999 21.3959 9.18278 21.3959C9.13556 21.3959 9.09729 21.4351 9.09729 21.4835C9.09729 21.5319 9.13556 21.5711 9.18278 21.5711Z" fill="#777777"/>
<path d="M9.50834 20.8334C9.55555 20.8334 9.59382 20.7941 9.59382 20.7458C9.59382 20.6974 9.55555 20.6581 9.50834 20.6581C9.46112 20.6581 9.42285 20.6974 9.42285 20.7458C9.42285 20.7941 9.46112 20.8334 9.50834 20.8334Z" fill="#777777"/>
<path d="M9.50834 21.2021C9.55555 21.2021 9.59382 21.1629 9.59382 21.1145C9.59382 21.0661 9.55555 21.0269 9.50834 21.0269C9.46112 21.0269 9.42285 21.0661 9.42285 21.1145C9.42285 21.1629 9.46112 21.2021 9.50834 21.2021Z" fill="#777777"/>
<path d="M9.50834 21.5711C9.55555 21.5711 9.59382 21.5319 9.59382 21.4835C9.59382 21.4351 9.55555 21.3959 9.50834 21.3959C9.46112 21.3959 9.42285 21.4351 9.42285 21.4835C9.42285 21.5319 9.46112 21.5711 9.50834 21.5711Z" fill="#777777"/>
<path d="M9.83365 20.8334C9.88087 20.8334 9.91914 20.7941 9.91914 20.7458C9.91914 20.6974 9.88087 20.6581 9.83365 20.6581C9.78644 20.6581 9.74817 20.6974 9.74817 20.7458C9.74817 20.7941 9.78644 20.8334 9.83365 20.8334Z" fill="#777777"/>
<path d="M9.83365 21.2021C9.88087 21.2021 9.91914 21.1629 9.91914 21.1145C9.91914 21.0661 9.88087 21.0269 9.83365 21.0269C9.78644 21.0269 9.74817 21.0661 9.74817 21.1145C9.74817 21.1629 9.78644 21.2021 9.83365 21.2021Z" fill="#777777"/>
<path d="M9.83365 21.5711C9.88087 21.5711 9.91914 21.5319 9.91914 21.4835C9.91914 21.4351 9.88087 21.3959 9.83365 21.3959C9.78644 21.3959 9.74817 21.4351 9.74817 21.4835C9.74817 21.5319 9.78644 21.5711 9.83365 21.5711Z" fill="#777777"/>
<path d="M10.1595 21.2021C10.2067 21.2021 10.2449 21.1629 10.2449 21.1145C10.2449 21.0661 10.2067 21.0269 10.1595 21.0269C10.1122 21.0269 10.074 21.0661 10.074 21.1145C10.074 21.1629 10.1122 21.2021 10.1595 21.2021Z" fill="#777777"/>
<path d="M10.1595 21.5711C10.2067 21.5711 10.2449 21.5319 10.2449 21.4835C10.2449 21.4351 10.2067 21.3959 10.1595 21.3959C10.1122 21.3959 10.074 21.4351 10.074 21.4835C10.074 21.5319 10.1122 21.5711 10.1595 21.5711Z" fill="#777777"/>
<path d="M8.52269 21.9407H9.80865C9.86982 21.9407 9.9196 21.9014 9.9196 21.8528C9.9196 21.8041 9.87019 21.7656 9.80865 21.7656H8.52269C8.46156 21.7656 8.41174 21.8041 8.41174 21.8528C8.41174 21.9014 8.46152 21.9407 8.52269 21.9407Z" fill="#777777"/>
</svg>
