<svg width="25" height="26" viewBox="0 0 25 26" fill="none" xmlns="http://www.w3.org/2000/svg">
<path d="M15.1125 4.77993H6.12497V21.0999H18.1083V7.83993H15.1125V4.77993ZM6.12497 2.73993H16.1111L20.1055 6.81993V21.0999C20.1055 21.641 19.8951 22.1598 19.5205 22.5424C19.146 22.925 18.638 23.1399 18.1083 23.1399H6.12497C5.59527 23.1399 5.08727 22.925 4.71272 22.5424C4.33817 22.1598 4.12775 21.641 4.12775 21.0999V4.77993C4.12775 4.23889 4.33817 3.72001 4.71272 3.33743C5.08727 2.95486 5.59527 2.73993 6.12497 2.73993ZM8.12219 11.9199H16.1111V13.9599H8.12219V11.9199ZM8.12219 15.9999H16.1111V18.0399H8.12219V15.9999Z" fill="white"/>
</svg>
