<svg width="24" height="24" viewBox="0 0 24 24" fill="none" xmlns="http://www.w3.org/2000/svg">
<path d="M16.4374 8.49627H17.6822C17.8846 8.49627 18.0459 8.33505 18.0459 8.13257C18.0459 7.93008 17.8846 7.76886 17.6822 7.76886H16.4374C16.235 7.76886 16.0737 7.93008 16.0737 8.13257C16.0737 8.33142 16.235 8.49627 16.4374 8.49627Z" fill="#777777"/>
<path d="M17.1087 21.9495H17.0075C16.805 21.9495 16.6438 22.1107 16.6438 22.3132C16.6438 22.5157 16.805 22.6769 17.0075 22.6769H17.1087C17.3111 22.6769 17.4724 22.5157 17.4724 22.3132C17.4724 22.1107 17.3111 21.9495 17.1087 21.9495Z" fill="#777777"/>
<path d="M22.7251 10.5887H21.9077V7.66779C21.9077 6.99664 21.3604 6.4493 20.6893 6.4493H13.4268C12.7556 6.4493 12.2083 6.99668 12.2083 7.66779V10.5887H11.391C10.6898 10.5887 10.12 11.1586 10.12 11.8597V13.9518H7.44293C7.03055 13.9518 6.6967 13.6181 6.6967 13.2056L6.69653 3.30699H7.90378C9.5272 3.30699 10.847 1.98716 10.847 0.363706C10.8472 0.161228 10.686 0 10.4835 0H0.363699C0.161224 0 0 0.161223 0 0.363706C0 1.98716 1.3198 3.30699 2.94322 3.30699H4.15047V13.8879C4.15047 15.3277 5.3203 16.4975 6.76007 16.4975H10.1195V18.5896C10.1195 19.2908 10.6894 19.8606 11.3904 19.8606H12.2078V22.7815C12.2078 23.4527 12.7551 24 13.4262 24H20.6927C21.3639 24 21.9112 23.4526 21.9112 22.7815V19.8606H22.7285C23.4297 19.8606 23.9995 19.2907 23.9995 18.5896L24 11.856C23.9962 11.1584 23.4262 10.5886 22.7251 10.5886L22.7251 10.5887ZM12.9354 10.2849C12.9354 10.0261 13.1453 9.81623 13.404 9.81623H20.7116C20.9703 9.81623 21.1802 10.0261 21.1802 10.2849V20.1574C21.1802 20.4161 20.9703 20.626 20.7116 20.626L13.404 20.6262C13.1453 20.6262 12.9354 20.4163 12.9354 20.1575V10.2849ZM13.4266 7.17671H20.6931C20.9631 7.17671 21.1842 7.39801 21.1842 7.66779V9.1863C21.038 9.1226 20.8806 9.08877 20.7156 9.08877H13.404C13.2354 9.08877 13.0778 9.12243 12.9354 9.1863V7.66779C12.9354 7.39782 13.1529 7.17671 13.4266 7.17671ZM0.75758 0.727612H10.0899C9.91746 1.77748 9.00263 2.57979 7.90408 2.57979H2.9434C1.8449 2.57979 0.930051 1.77748 0.75758 0.727612ZM6.76025 15.7668C5.72162 15.7668 4.87805 14.9232 4.87805 13.8846V3.30725H5.96913V13.2058C5.96913 14.0195 6.62905 14.6793 7.44257 14.6793H10.1196V15.7704L6.76025 15.7706V15.7668ZM11.3908 19.1301C11.0908 19.1301 10.8471 18.8863 10.8471 18.5863L10.8473 11.8562C10.8473 11.5562 11.091 11.3124 11.391 11.3124H12.2083V19.1301H11.3908ZM20.6931 23.2695H13.4271C13.1571 23.2695 12.936 23.0482 12.936 22.7784L12.9358 21.2597C13.082 21.3234 13.2395 21.3572 13.4045 21.3572H20.712C20.8807 21.3572 21.0383 21.3236 21.1807 21.2597V22.7782C21.1845 23.0482 20.9632 23.2695 20.6932 23.2695H20.6931ZM23.269 18.5902C23.269 18.8902 23.0253 19.1339 22.7253 19.1339H21.908V11.3163H22.7253C23.0253 11.3163 23.269 11.56 23.269 11.86V18.5902Z" fill="#777777"/>
</svg>
