<svg width="18" height="24" viewBox="0 0 18 24" fill="none" xmlns="http://www.w3.org/2000/svg">
<path d="M2.57326 0.0619774C2.30484 0.191288 2.25746 0.311045 2.25746 0.948044V1.51328H1.38355C0.388481 1.51328 0.21456 1.55639 0.077792 1.82456C-0.00109167 1.96832 -0.00647628 2.56221 0.00402359 7.7395L0.0199081 13.4965L0.19356 13.6353L0.362096 13.7742H1.86277H3.35806L3.37394 17.6393L3.38929 21.5093L3.53683 21.9021C3.8844 22.8408 4.66893 23.5496 5.70088 23.8707L6.12733 24H9.49699C13.2352 24 13.1299 24.0095 13.8881 23.6791C14.7515 23.3057 15.4571 22.4818 15.6572 21.6053C15.7205 21.3227 15.7361 20.5037 15.7361 16.514V11.7628H16.61C17.5999 11.7628 17.779 11.7197 17.9157 11.4515C17.9895 11.3176 18 11.006 18 9.20526C18 6.90634 17.9949 6.85368 17.6893 6.71482C17.5945 6.66682 17.3945 6.63817 17.184 6.63817H16.8418V5.7761V4.91404L16.6891 4.76073L16.5365 4.60276L15.2676 4.58831C13.4457 4.56921 13.4721 4.54986 13.4721 5.8432V6.63817H13.0984C12.7458 6.63817 12.714 6.64772 12.5457 6.80103L12.3667 6.96389V9.14795C12.3667 11.0398 12.3772 11.356 12.4509 11.4804C12.5826 11.7199 12.7826 11.763 13.7621 11.763H14.6309V16.3993C14.6309 19.5508 14.6099 21.1267 14.573 21.3229C14.4413 21.9744 14.0254 22.4772 13.3779 22.7647L12.9778 22.9466H9.54949H6.12733L5.76926 22.7887C5.31642 22.5827 4.94785 22.2474 4.72143 21.8355L4.54778 21.5098L4.53189 17.6447L4.52139 13.7747H6.01157C7.63851 13.7747 7.64901 13.7747 7.81216 13.4874C7.88054 13.3677 7.89104 12.6158 7.89104 7.66824C7.89104 1.36512 7.91204 1.74349 7.54886 1.59043C7.41209 1.52822 7.18567 1.51377 6.50102 1.51377H5.62711V0.962982C5.62711 0.316433 5.56384 0.158468 5.27442 0.0482616C5.03212 -0.0474968 4.82158 0.000259399 4.65304 0.182468C4.52678 0.316677 4.52139 0.349985 4.52139 0.920124V1.51402H3.94228H3.36318V0.915226C3.36318 0.330881 3.35779 0.316433 3.22102 0.172918C3.03122 -0.010025 2.8153 -0.0482292 2.57326 0.0619774ZM6.73283 7.66775V12.7684H3.94228H1.15147V7.6675V2.56662H3.94201H6.73256V7.66775H6.73283ZM15.7363 6.13513V6.63792H15.1833H14.6306V6.13513V5.6321H15.1833H15.7363V6.13513ZM16.8418 9.18591V10.709H15.157H13.4721V9.20991C13.4721 8.3814 13.4826 7.6964 13.4931 7.68685C13.5036 7.6773 14.2618 7.66775 15.178 7.66775H16.8418V9.18591Z" fill="#777777"/>
</svg>
