<svg width="24" height="19" viewBox="0 0 24 19" fill="none" xmlns="http://www.w3.org/2000/svg">
<path d="M8.28751 3.03756C8.77503 2.54999 9.35381 2.16323 9.9908 1.89936C10.6278 1.63549 11.3105 1.49968 12 1.49968C12.6895 1.49968 13.3722 1.63549 14.0092 1.89936C14.6462 2.16323 15.225 2.54999 15.7125 3.03756C15.7817 3.10919 15.8645 3.16633 15.956 3.20563C16.0475 3.24494 16.1459 3.26563 16.2455 3.2665C16.345 3.26736 16.4438 3.24839 16.536 3.21068C16.6282 3.17296 16.7119 3.11727 16.7823 3.04685C16.8527 2.97644 16.9084 2.8927 16.9461 2.80052C16.9838 2.70835 17.0028 2.60959 17.002 2.51001C17.0011 2.41042 16.9804 2.31201 16.9411 2.22051C16.9018 2.129 16.8446 2.04624 16.773 1.97706C16.1462 1.35025 15.4021 0.853046 14.5831 0.513821C13.7642 0.174597 12.8864 0 12 0C11.1136 0 10.2358 0.174597 9.41688 0.513821C8.59793 0.853046 7.85381 1.35025 7.22701 1.97706C7.09039 2.11851 7.0148 2.30796 7.01651 2.50461C7.01822 2.70126 7.09709 2.88937 7.23615 3.02842C7.37521 3.16748 7.56331 3.24636 7.75996 3.24806C7.95661 3.24977 8.14606 3.17418 8.28751 3.03756Z" fill="#777777"/>
<path d="M10.41 5.16006C10.8319 4.73871 11.4037 4.50204 12 4.50204C12.5963 4.50204 13.1681 4.73871 13.59 5.16006C13.7308 5.30089 13.9218 5.38001 14.121 5.38001C14.3202 5.38001 14.5112 5.30089 14.652 5.16006C14.7928 5.01923 14.8719 4.82822 14.8719 4.62906C14.8719 4.42989 14.7928 4.23889 14.652 4.09806C14.3038 3.74973 13.8903 3.47342 13.4353 3.28491C12.9803 3.09639 12.4925 2.99936 12 2.99936C11.5075 2.99936 11.0197 3.09639 10.5647 3.28491C10.1097 3.47342 9.69623 3.74973 9.348 4.09806C9.21138 4.23951 9.13579 4.42896 9.13749 4.62561C9.1392 4.82226 9.21808 5.01037 9.35714 5.14942C9.49619 5.28848 9.6843 5.36736 9.88095 5.36906C10.0776 5.37077 10.267 5.29518 10.4085 5.15856L10.41 5.16006ZM3.75 15.0001C3.55109 15.0001 3.36032 14.921 3.21967 14.7804C3.07902 14.6397 3 14.449 3 14.2501C3 14.0511 3.07902 13.8604 3.21967 13.7197C3.36032 13.5791 3.55109 13.5001 3.75 13.5001C3.94891 13.5001 4.13968 13.5791 4.28033 13.7197C4.42098 13.8604 4.5 14.0511 4.5 14.2501C4.5 14.449 4.42098 14.6397 4.28033 14.7804C4.13968 14.921 3.94891 15.0001 3.75 15.0001ZM10.5 14.2501C10.5 14.449 10.579 14.6397 10.7197 14.7804C10.8603 14.921 11.0511 15.0001 11.25 15.0001C11.4489 15.0001 11.6397 14.921 11.7803 14.7804C11.921 14.6397 12 14.449 12 14.2501C12 14.0511 11.921 13.8604 11.7803 13.7197C11.6397 13.5791 11.4489 13.5001 11.25 13.5001C11.0511 13.5001 10.8603 13.5791 10.7197 13.7197C10.579 13.8604 10.5 14.0511 10.5 14.2501ZM14.25 15.0001C14.0511 15.0001 13.8603 14.921 13.7197 14.7804C13.579 14.6397 13.5 14.449 13.5 14.2501C13.5 14.0511 13.579 13.8604 13.7197 13.7197C13.8603 13.5791 14.0511 13.5001 14.25 13.5001C14.4489 13.5001 14.6397 13.5791 14.7803 13.7197C14.921 13.8604 15 14.0511 15 14.2501C15 14.449 14.921 14.6397 14.7803 14.7804C14.6397 14.921 14.4489 15.0001 14.25 15.0001ZM16.5 14.2501C16.5 14.449 16.579 14.6397 16.7197 14.7804C16.8603 14.921 17.0511 15.0001 17.25 15.0001C17.4489 15.0001 17.6397 14.921 17.7803 14.7804C17.921 14.6397 18 14.449 18 14.2501C18 14.0511 17.921 13.8604 17.7803 13.7197C17.6397 13.5791 17.4489 13.5001 17.25 13.5001C17.0511 13.5001 16.8603 13.5791 16.7197 13.7197C16.579 13.8604 16.5 14.0511 16.5 14.2501ZM19.5 14.2501C19.5 14.449 19.579 14.6397 19.7197 14.7804C19.8603 14.921 20.0511 15.0001 20.25 15.0001C20.4489 15.0001 20.6397 14.921 20.7803 14.7804C20.921 14.6397 21 14.449 21 14.2501C21 14.0511 20.921 13.8604 20.7803 13.7197C20.6397 13.5791 20.4489 13.5001 20.25 13.5001C20.0511 13.5001 19.8603 13.5791 19.7197 13.7197C19.579 13.8604 19.5 14.0511 19.5 14.2501Z" fill="#777777"/>
<path d="M4.461 2.01305C4.43275 1.9162 4.38525 1.82604 4.32135 1.74798C4.25744 1.66991 4.17844 1.60554 4.08908 1.55872C3.99972 1.5119 3.90182 1.48358 3.80126 1.47548C3.7007 1.46737 3.59954 1.47964 3.50383 1.51154C3.40812 1.54344 3.31983 1.59433 3.24424 1.66115C3.16866 1.72797 3.10733 1.80936 3.06394 1.90043C3.02054 1.99151 2.99596 2.09041 2.99168 2.1912C2.98739 2.292 3.00349 2.39262 3.039 2.48705L5.709 10.5001H2.25C1.65326 10.5001 1.08097 10.7371 0.65901 11.1591C0.237053 11.581 0 12.1533 0 12.7501L0 15.7501C0 16.3468 0.237053 16.9191 0.65901 17.341C1.08097 17.763 1.65326 18.0001 2.25 18.0001H3C3 18.199 3.07902 18.3897 3.21967 18.5304C3.36032 18.671 3.55109 18.7501 3.75 18.7501H6.75C6.94891 18.7501 7.13968 18.671 7.28033 18.5304C7.42098 18.3897 7.5 18.199 7.5 18.0001H16.5C16.5 18.199 16.579 18.3897 16.7197 18.5304C16.8603 18.671 17.0511 18.7501 17.25 18.7501H20.25C20.4489 18.7501 20.6397 18.671 20.7803 18.5304C20.921 18.3897 21 18.199 21 18.0001H21.75C22.3467 18.0001 22.919 17.763 23.341 17.341C23.7629 16.9191 24 16.3468 24 15.7501V12.7501C24 12.1533 23.7629 11.581 23.341 11.1591C22.919 10.7371 22.3467 10.5001 21.75 10.5001H18.291L20.961 2.48705C20.9965 2.39262 21.0126 2.292 21.0083 2.1912C21.004 2.09041 20.9795 1.99151 20.9361 1.90043C20.8927 1.80936 20.8313 1.72797 20.7558 1.66115C20.6802 1.59433 20.5919 1.54344 20.4962 1.51154C20.4005 1.47964 20.2993 1.46737 20.1987 1.47548C20.0982 1.48358 20.0003 1.5119 19.9109 1.55872C19.8216 1.60554 19.7426 1.66991 19.6787 1.74798C19.6147 1.82604 19.5672 1.9162 19.539 2.01305L16.71 10.5001H7.29L4.461 2.01305ZM21.75 12.0001C21.9489 12.0001 22.1397 12.0791 22.2803 12.2197C22.421 12.3604 22.5 12.5511 22.5 12.7501V15.7501C22.5 15.949 22.421 16.1397 22.2803 16.2804C22.1397 16.421 21.9489 16.5001 21.75 16.5001H2.25C2.05109 16.5001 1.86032 16.421 1.71967 16.2804C1.57902 16.1397 1.5 15.949 1.5 15.7501V12.7501C1.5 12.5511 1.57902 12.3604 1.71967 12.2197C1.86032 12.0791 2.05109 12.0001 2.25 12.0001H21.75Z" fill="#777777"/>
<path d="M12.75 6.75006C12.75 6.94897 12.671 7.13974 12.5303 7.28039C12.3897 7.42104 12.1989 7.50006 12 7.50006C11.8011 7.50006 11.6103 7.42104 11.4697 7.28039C11.329 7.13974 11.25 6.94897 11.25 6.75006C11.25 6.55115 11.329 6.36038 11.4697 6.21973C11.6103 6.07908 11.8011 6.00006 12 6.00006C12.1989 6.00006 12.3897 6.07908 12.5303 6.21973C12.671 6.36038 12.75 6.55115 12.75 6.75006Z" fill="#777777"/>
</svg>
