<svg width="24" height="14" viewBox="0 0 24 14" fill="none" xmlns="http://www.w3.org/2000/svg">
<path d="M0 3C0 2.20435 0.316071 1.44129 0.87868 0.87868C1.44129 0.31607 2.20435 0 3 0H21C21.7956 0 22.5587 0.31607 23.1213 0.87868C23.6839 1.44129 24 2.20435 24 3V7.5C24 8.29565 23.6839 9.05871 23.1213 9.62132C22.5587 10.1839 21.7956 10.5 21 10.5H13.9035C14.1195 10.743 14.3985 10.986 14.7 11.2125C15.1303 11.5329 15.5852 11.8188 16.0605 12.0675L16.0815 12.0765L16.086 12.0795C16.237 12.1552 16.358 12.2796 16.4295 12.4326C16.501 12.5856 16.5187 12.7583 16.4798 12.9226C16.4409 13.087 16.3477 13.2334 16.2153 13.3382C16.0828 13.443 15.9189 13.5 15.75 13.5H8.25C8.08111 13.5 7.91717 13.443 7.78472 13.3382C7.65227 13.2334 7.55907 13.087 7.52019 12.9226C7.48132 12.7583 7.49905 12.5856 7.57052 12.4326C7.64199 12.2796 7.76302 12.1552 7.914 12.0795L7.9185 12.0765L7.9395 12.066C8.07599 11.9966 8.21007 11.9226 8.3415 11.844C8.67268 11.6518 8.9927 11.441 9.3 11.2125C9.6 10.9875 9.8805 10.743 10.0965 10.5H3C2.20435 10.5 1.44129 10.1839 0.87868 9.62132C0.316071 9.05871 0 8.29565 0 7.5V3ZM3 1.5C2.60218 1.5 2.22064 1.65804 1.93934 1.93934C1.65804 2.22064 1.5 2.60218 1.5 3V7.5C1.5 7.89782 1.65804 8.27936 1.93934 8.56066C2.22064 8.84196 2.60218 9 3 9H21C21.3978 9 21.7794 8.84196 22.0607 8.56066C22.342 8.27936 22.5 7.89782 22.5 7.5V3C22.5 2.60218 22.342 2.22064 22.0607 1.93934C21.7794 1.65804 21.3978 1.5 21 1.5H3Z" fill="#777777"/>
<path d="M12 3.75C11.6022 3.75 11.2206 3.90804 10.9393 4.18934C10.658 4.47064 10.5 4.85218 10.5 5.25C10.5 5.64782 10.658 6.02936 10.9393 6.31066C11.2206 6.59196 11.6022 6.75 12 6.75C12.3978 6.75 12.7794 6.59196 13.0607 6.31066C13.342 6.02936 13.5 5.64782 13.5 5.25C13.5 4.85218 13.342 4.47064 13.0607 4.18934C12.7794 3.90804 12.3978 3.75 12 3.75ZM9 5.25C9 4.45435 9.31607 3.69129 9.87868 3.12868C10.4413 2.56607 11.2044 2.25 12 2.25C12.7956 2.25 13.5587 2.56607 14.1213 3.12868C14.6839 3.69129 15 4.45435 15 5.25C15 6.04565 14.6839 6.80871 14.1213 7.37132C13.5587 7.93393 12.7956 8.25 12 8.25C11.2044 8.25 10.4413 7.93393 9.87868 7.37132C9.31607 6.80871 9 6.04565 9 5.25ZM19.5 5.25C19.5 5.44891 19.421 5.63968 19.2803 5.78033C19.1397 5.92098 18.9489 6 18.75 6C18.5511 6 18.3603 5.92098 18.2197 5.78033C18.079 5.63968 18 5.44891 18 5.25C18 5.05109 18.079 4.86032 18.2197 4.71967C18.3603 4.57902 18.5511 4.5 18.75 4.5C18.9489 4.5 19.1397 4.57902 19.2803 4.71967C19.421 4.86032 19.5 5.05109 19.5 5.25Z" fill="#777777"/>
</svg>
