<svg width="24" height="24" viewBox="0 0 24 24" fill="none" xmlns="http://www.w3.org/2000/svg">
<path d="M8.5 19L11 15H9.5V12L7 16H8.5V19ZM6 10H12V5H6V10ZM6 19H12V12H6V19ZM4 21V5C4 4.45 4.196 3.979 4.588 3.587C4.97933 3.19567 5.45 3 6 3H12C12.55 3 13.021 3.19567 13.413 3.587C13.8043 3.979 14 4.45 14 5V12H15C15.55 12 16.021 12.1957 16.413 12.587C16.8043 12.979 17 13.45 17 14V18.5C17 18.7833 17.1167 19.0207 17.35 19.212C17.5833 19.404 17.8417 19.5 18.125 19.5C18.425 19.5 18.6877 19.404 18.913 19.212C19.1377 19.0207 19.25 18.7833 19.25 18.5V9H19C18.7167 9 18.4793 8.904 18.288 8.712C18.096 8.52067 18 8.28333 18 8V6H18.5V4.5H19.5V6H20.5V4.5H21.5V6H22V8C22 8.28333 21.904 8.52067 21.712 8.712C21.5207 8.904 21.2833 9 21 9H20.75V18.5C20.75 19.2 20.496 19.7917 19.988 20.275C19.4793 20.7583 18.8583 21 18.125 21C17.4083 21 16.7917 20.7583 16.275 20.275C15.7583 19.7917 15.5 19.2 15.5 18.5V13.5H14V21H4ZM12 19H6H12Z" fill="#777777"/>
</svg>
