<svg width="47" height="50" viewBox="0 0 47 50" fill="none" xmlns="http://www.w3.org/2000/svg">
<path d="M38.6095 37.2852C37.7611 35.1034 36.53 33.1216 34.9847 31.4502C33.444 29.774 31.619 28.4375 29.6104 27.5146C29.5924 27.5049 29.5744 27.5 29.5564 27.4902C32.3582 25.293 34.1796 21.7139 34.1796 17.6758C34.1796 10.9863 29.1876 5.56641 23.0263 5.56641C16.8649 5.56641 11.8729 10.9863 11.8729 17.6758C11.8729 21.7139 13.6943 25.293 16.4962 27.4951C16.4782 27.5049 16.4602 27.5098 16.4422 27.5195C14.4274 28.4424 12.6195 29.7656 11.0679 31.4551C9.52399 33.1278 8.29305 35.1092 7.44303 37.29C6.60798 39.4251 6.15762 41.7141 6.11632 44.0332C6.11512 44.0853 6.12354 44.1372 6.14108 44.1857C6.15863 44.2342 6.18494 44.2784 6.21847 44.3158C6.252 44.3531 6.29207 44.3827 6.33632 44.403C6.38056 44.4232 6.4281 44.4336 6.47611 44.4336H9.17451C9.37239 44.4336 9.52979 44.2627 9.53429 44.0527C9.62424 40.2832 11.0184 36.7529 13.4829 34.0771C16.0329 31.3086 19.4194 29.7852 23.0263 29.7852C26.6331 29.7852 30.0196 31.3086 32.5696 34.0771C35.0341 36.7529 36.4283 40.2832 36.5183 44.0527C36.5228 44.2676 36.6802 44.4336 36.878 44.4336H39.5764C39.6245 44.4336 39.672 44.4232 39.7162 44.403C39.7605 44.3827 39.8006 44.3531 39.8341 44.3158C39.8676 44.2784 39.8939 44.2342 39.9115 44.1857C39.929 44.1372 39.9374 44.0853 39.9362 44.0332C39.8913 41.6992 39.446 39.4287 38.6095 37.2852V37.2852ZM23.0263 26.0742C20.962 26.0742 19.0192 25.2002 17.5575 23.6133C16.0959 22.0264 15.2909 19.917 15.2909 17.6758C15.2909 15.4346 16.0959 13.3252 17.5575 11.7383C19.0192 10.1514 20.962 9.27734 23.0263 9.27734C25.0905 9.27734 27.0334 10.1514 28.495 11.7383C29.9567 13.3252 30.7617 15.4346 30.7617 17.6758C30.7617 19.917 29.9567 22.0264 28.495 23.6133C27.0334 25.2002 25.0905 26.0742 23.0263 26.0742Z" fill="#605B5B"/>
</svg>
