<svg width="50" height="50" viewBox="0 0 50 50" fill="none" xmlns="http://www.w3.org/2000/svg">
<path d="M33.3333 8.33331H39.5833C40.6884 8.33331 41.7482 8.77229 42.5296 9.5537C43.311 10.3351 43.75 11.3949 43.75 12.5V14.5833M33.3333 41.6666H39.5833C40.6884 41.6666 41.7482 41.2277 42.5296 40.4463C43.311 39.6648 43.75 38.605 43.75 37.5V35.4166M18.7521 25H18.75M33.3333 25H43.75M43.75 25L39.5833 20.8333M43.75 25L39.5833 29.1666M9.21875 40.475L21.7187 44.225C22.341 44.4118 22.9983 44.4504 23.6382 44.3379C24.2781 44.2254 24.8828 43.9649 25.404 43.577C25.9252 43.1892 26.3485 42.6849 26.6401 42.1043C26.9317 41.5237 27.0835 40.883 27.0833 40.2333V9.76664C27.0835 9.11696 26.9317 8.47624 26.6401 7.89567C26.3485 7.31509 25.9252 6.81075 25.404 6.42292C24.8828 6.03508 24.2781 5.77451 23.6382 5.66201C22.9983 5.5495 22.341 5.58819 21.7187 5.77497L9.21875 9.52497C8.36046 9.78261 7.6081 10.3101 7.07331 11.0291C6.53852 11.7482 6.2498 12.6205 6.25 13.5166V36.4833C6.2498 37.3794 6.53852 38.2517 7.07331 38.9708C7.6081 39.6899 8.36046 40.2173 9.21875 40.475V40.475Z" stroke="black" stroke-width="4.16667" stroke-linecap="round" stroke-linejoin="round"/>
</svg>
