<svg width="50" height="50" viewBox="0 0 50 50" fill="none" xmlns="http://www.w3.org/2000/svg">
<path d="M16.325 10.02C17.4386 8.08024 19.1703 6.56982 21.2434 5.73016C23.3165 4.89051 25.6113 4.7701 27.7609 5.38818C29.9104 6.00626 31.7908 7.32715 33.1013 9.13971C34.4117 10.9523 35.0767 13.1518 34.9899 15.3868C34.9031 17.6218 34.0696 19.7632 32.6225 21.4687C31.1753 23.1741 29.1983 24.3452 27.0072 24.7947C24.8162 25.2443 22.5377 24.9463 20.5359 23.9483C18.5342 22.9504 16.9248 21.3103 15.965 19.29C15.3237 19.7591 14.5495 20.0113 13.755 20.01H12.505V20.6475C12.505 21.1225 12.685 21.555 12.98 21.8825C13.2321 21.5975 13.565 21.3961 13.9344 21.3051C14.3039 21.214 14.6922 21.2377 15.0479 21.3729C15.4035 21.5081 15.7095 21.7484 15.9252 22.0618C16.1408 22.3753 16.2559 22.747 16.255 23.1275C16.2548 23.3888 16.2 23.6472 16.0941 23.886C15.9882 24.1249 15.8336 24.339 15.6401 24.5146C15.4466 24.6902 15.2185 24.8234 14.9705 24.9057C14.7225 24.988 14.4601 25.0176 14.2 24.9925C13.074 24.953 12.0074 24.4779 11.2248 23.6674C10.4423 22.8568 10.005 21.7742 10.005 20.6475V11.2675C10.005 10.936 10.1367 10.618 10.3711 10.3836C10.6055 10.1492 10.9235 10.0175 11.255 10.0175H16.255L16.325 10.02ZM17.505 15.2975C17.5829 17.2593 18.4269 19.1124 19.8559 20.4587C21.2849 21.8051 23.1849 22.5375 25.1479 22.4985C27.1108 22.4596 28.9803 21.6524 30.3547 20.2504C31.7292 18.8484 32.4991 16.9634 32.4991 15C32.4991 13.0366 31.7292 11.1516 30.3547 9.74956C28.9803 8.34756 27.1108 7.54042 25.1479 7.50147C23.1849 7.46252 21.2849 8.19487 19.8559 9.54125C18.4269 10.8876 17.5829 12.7407 17.505 14.7025V15.2975ZM15.005 14.655V12.5175H12.505V17.51H13.755C14.0865 17.51 14.4045 17.3783 14.6389 17.1439C14.8733 16.9095 15.005 16.5915 15.005 16.26V15.345C14.9972 15.1151 14.9972 14.8849 15.005 14.655V14.655ZM7.5 32.5C7.5 29.7175 9.7575 27.5 12.5225 27.5H37.5C38.8261 27.5 40.0979 28.0268 41.0355 28.9645C41.9732 29.9021 42.5 31.1739 42.5 32.5C42.5 36.7275 40.4175 39.915 37.1625 41.9925C33.9575 44.035 29.6375 45 25 45C20.3625 45 16.0425 44.035 12.8375 41.9925C9.5825 39.9175 7.5 36.725 7.5 32.5ZM12.5225 30C11.12 30 10 31.1175 10 32.5C10 35.7725 11.555 38.21 14.1825 39.8825C16.8575 41.59 20.6625 42.5 25 42.5C29.3375 42.5 33.1425 41.59 35.8175 39.8825C38.4425 38.2075 40 35.775 40 32.5C40 31.837 39.7366 31.2011 39.2678 30.7322C38.7989 30.2634 38.163 30 37.5 30H12.5225Z" fill="black"/>
</svg>
