<svg width="36" height="36" viewBox="0 0 36 36" fill="none" xmlns="http://www.w3.org/2000/svg">
<path d="M18.7671 35.1872C6.90273 35.1872 3.73276 22.8194 5.16566 14.7159C5.22802 14.3632 5.69033 14.2616 5.89177 14.5578C6.51558 15.4747 7.0707 16.799 7.99046 16.684C9.37287 16.5112 10.3306 4.31284 18.5238 0.880531C18.7838 0.771617 19.0558 0.978265 19.0273 1.25867C18.6221 5.23365 21.0087 10.9244 25.237 10.9244C27.6608 10.9244 29.3192 8.98995 30.1479 7.04722C30.3996 6.45709 31.2619 6.53148 31.4062 7.15662C32.885 13.5608 36.8379 35.1872 18.7671 35.1872V35.1872Z" fill="#FF8F1F"/>
<path d="M14.6078 23.2613C14.8868 23.0269 15.3104 23.1877 15.3738 23.5466C15.522 24.3864 16.0094 25.8295 17.6081 25.8295C19.5313 25.8295 20.8365 20.5375 21.1788 18.9811C21.2351 18.7251 21.4846 18.5512 21.7415 18.6034C26.5478 19.5806 28.8846 35.1872 18.3171 35.1872C10.6241 35.1872 12.3669 25.1438 14.6078 23.2613ZM27.7409 6.36005C27.9103 5.03523 25.4918 8.65878 25.4918 8.65878C25.4918 8.65878 27.3356 9.52967 27.7409 6.36005ZM3.3724 26.118C3.42337 25.554 2.69782 24.044 2.56936 24.6419C2.26188 26.0723 3.32142 26.6821 3.3724 26.118Z" fill="#FFB636"/>
<path d="M22.7233 24.5107C22.5431 23.759 21.8968 25.5049 21.978 26.216C22.0592 26.9271 23.1544 26.309 22.7233 24.5107Z" fill="#FFD469"/>
</svg>
