<svg width="15" height="20" viewBox="0 0 15 20" fill="none" xmlns="http://www.w3.org/2000/svg">
<path d="M13.2 8.4H12V4.8C12 2.16 9.84 0 7.2 0C4.56 0 2.4 2.16 2.4 4.8V8.4H1.2C0.6 8.4 0 9 0 9.6V18C0 18.6 0.6 19.2 1.2 19.2H13.2C13.8 19.2 14.4 18.6 14.4 18V9.6C14.4 9 13.8 8.4 13.2 8.4ZM8.4 16.8H6L6.48 14.16C5.88 13.92 5.4 13.2 5.4 12.6C5.4 11.64 6.24 10.8 7.2 10.8C8.16 10.8 9 11.64 9 12.6C9 13.32 8.64 13.92 7.92 14.16L8.4 16.8ZM9.6 8.4H4.8V4.8C4.8 3.48 5.88 2.4 7.2 2.4C8.52 2.4 9.6 3.48 9.6 4.8V8.4Z" fill="black"/>
</svg>
